<?xml version="1.0" encoding="utf-8"?>
<!-- Generator: Adobe Illustrator 16.0.0, SVG Export Plug-In . SVG Version: 6.00 Build 0)  -->
<!DOCTYPE svg PUBLIC "-//W3C//DTD SVG 1.1//EN" "http://www.w3.org/Graphics/SVG/1.1/DTD/svg11.dtd">
<svg version="1.1" id="Layer_1" xmlns="http://www.w3.org/2000/svg" xmlns:xlink="http://www.w3.org/1999/xlink" x="0px" y="0px"
	 width="2172.5px" height="457.852px" viewBox="24 27.071 2172.5 457.852" enable-background="new 24 27.071 2172.5 457.852"
	 xml:space="preserve">
<path fill="#ED1C24" d="M464,88H312V51.078c0-7.112-3.13-13.823-8.578-18.391c-4.086-3.433-9.121-5.367-14.344-5.594
	c-1.74-0.076-3.496,0.029-5.25,0.344L50.437,68.625C35.118,71.329,24,84.58,24,100.141v311.734c0,15.552,11.118,28.804,26.438,31.5
	l233.391,41.188c1.393,0.247,2.796,0.359,4.188,0.359c5.601,0,11.047-1.946,15.406-5.609c5.448-4.568,8.578-11.279,8.578-18.391V424
	h152c13.232,0,24-10.769,24-24V112C488,98.768,477.232,88,464,88z M296,460.922c0,3.239-1.795,5.244-2.859,6.141
	c-1.063,0.896-3.323,2.302-6.531,1.75L53.219,427.625C45.563,426.273,40,419.644,40,411.86V100.141
	c0-7.784,5.563-14.414,13.219-15.766l233.375-41.188c0.803-0.134,1.555-0.147,2.234-0.078c2.04,0.207,3.515,1.165,4.313,1.844
	c1.072,0.88,2.859,2.885,2.859,6.125V460.922z M472,400c0,4.416-3.592,8-8,8h-88h-64V104h64h88c4.408,0,8,3.584,8,8V400z"/>
<path fill="#ED1C24" d="M344,144c-4.415,0-8,3.576-8,8v88c0,4.424,3.585,8,8,8h88c4.416,0,8-3.576,8-8v-32c0-4.424-3.584-8-8-8
	c-4.415,0-8,3.576-8,8v24h-72v-72h40c4.416,0,8-3.576,8-8s-3.584-8-8-8H344z"/>
<path fill="#ED1C24" d="M440,144c-2.046,0-4.092,0.779-5.656,2.344L392,188.688l-10.344-10.344c-3.128-3.128-8.184-3.128-11.313,0
	c-3.128,3.128-3.128,8.185,0,11.313l16,16c1.561,1.56,3.608,2.344,5.656,2.344c2.049,0,4.097-0.784,5.656-2.344l48-48
	c3.129-3.128,3.129-8.185,0-11.313C444.093,144.78,442.047,144,440,144z"/>
<path fill="#ED1C24" d="M432,264h-88c-4.415,0-8,3.576-8,8v32c0,4.424,3.585,8,8,8h88c4.416,0,8-3.576,8-8v-32
	C440,267.576,436.416,264,432,264z M424,296h-72v-16h72V296z"/>
<path fill="#ED1C24" d="M432,328h-88c-4.415,0-8,3.576-8,8v32c0,4.424,3.585,8,8,8h88c4.416,0,8-3.576,8-8v-32
	C440,331.576,436.416,328,432,328z M424,360h-72v-16h72V360z"/>
<path fill="#ED1C24" d="M171.567,176.899l54.731,135.082l-82.671-65.119L171.567,176.899z M268.795,343.099l-84.187-202.603
	c-2.402-5.843-7.21-8.935-13.042-8.935c-5.843,0-10.998,3.091-13.402,8.935L65.763,362.727h31.609L133.95,271.1l109.155,88.184
	c4.391,3.552,7.558,5.156,11.677,5.156c8.247,0,15.454-6.181,15.454-15.104C270.236,347.881,269.722,345.575,268.795,343.099
	L268.795,343.099z"/>
<path fill="#ED1C24" d="M650.218,195.242l49.379,121.869l-74.586-58.749L650.218,195.242z M737.935,345.186L661.983,162.4
	c-2.167-5.271-6.504-8.061-11.766-8.061c-5.271,0-9.922,2.789-12.091,8.061l-83.363,200.495h28.518l33-82.665l98.478,79.558
	c3.962,3.205,6.819,4.652,10.536,4.652c7.439,0,13.941-5.576,13.941-13.627C739.236,349.501,738.772,347.42,737.935,345.186
	L737.935,345.186z"/>
<path fill-rule="evenodd" clip-rule="evenodd" fill="#ED1C24" d="M2053.169,363.422c-7.392,0-14.844,0-23.143,0
	c0-2.575,0.023-4.95-0.004-7.323c-0.285-24.714,0.056-49.456-1.042-74.134c-1.186-26.632-24.223-41.926-49.828-34.175
	c-5.04,1.526-8.059,4.934-8.825,9.946c-0.735,4.823-1.089,9.75-1.106,14.632c-0.1,27.792-0.05,55.584-0.05,83.377
	c0,2.415,0,4.831,0,7.682c-8.068,0-15.52,0-23.801,0c0-2.589,0.024-4.967-0.003-7.344c-0.283-24.714,0.049-49.456-1.035-74.135
	c-1.172-26.685-24.156-41.953-49.784-34.146c-5.035,1.533-8.055,4.958-8.849,9.946c-0.766,4.816-1.127,9.745-1.145,14.627
	c-0.103,27.995-0.051,55.991-0.053,83.988c0,2.21,0,4.421,0,7.063c-8.072,0-15.521,0-23.793,0c0-2.396,0-4.571,0-6.747
	c0-30.856-0.016-61.713,0.006-92.572c0.018-24.952,10.956-36.583,35.991-38.345c22.177-1.56,33.526,1.315,53.372,13.521
	c18.046-20.807,66.37-16.637,85.477,1.081c10.361,9.609,17.588,20.915,17.895,35.06c0.62,28.593,0.263,57.21,0.283,85.816
	C2053.733,361.823,2053.441,362.406,2053.169,363.422z"/>
<path fill-rule="evenodd" clip-rule="evenodd" fill="#ED1C24" d="M1067.474,170.616c7.832,0,15.133,0,23.186,0
	c0,20.304,0,40.414,0,61.37c2.371-0.729,3.862-1.064,5.257-1.635c42.572-17.427,86.659,8.499,91.811,54.008
	c5.47,48.309-26.851,82.148-77.682,80.542c-9.397-0.297-19.081-2.456-27.95-5.648c-9.767-3.516-14.951-11.729-14.957-22.507
	c-0.035-54.383-0.035-108.766-0.033-163.148C1067.105,172.81,1067.295,172.021,1067.474,170.616z M1091.68,330.572
	c0.122,5.544,3.092,10.319,8.714,11.288c18.018,3.105,35.246,1.035,49.37-11.751c17.205-15.572,19.734-44.956,6.188-64.713
	c-12.805-18.672-40.302-25.518-61.374-14.975c-1.775,0.887-3.43,3.92-3.49,6.005c-0.338,11.437-0.161,22.887-0.161,34.333"/>
<path fill-rule="evenodd" clip-rule="evenodd" fill="#ED1C24" d="M1495.351,363.415c-8.044,0-15.494,0-23.907,0
	c0-2.504,0-4.874,0-7.244c0-48.865,0.401-97.734-0.155-146.594c-0.316-27.781,13-37.294,34.371-38.471
	c27.686-1.524,55.519-0.372,84.164-0.372c0,5.99,0.3,11.861-0.248,17.653c-0.111,1.182-3.396,2.931-5.234,2.95
	c-20.852,0.211-41.707,0.102-62.562,0.167c-4.079,0.013-8.201,0.102-12.227,0.684c-8.238,1.189-13.217,5.272-13.542,13.427
	c-0.666,16.673-0.2,33.393-0.2,50.658c29.576,0,58.927,0,89.173,0c0,6.586,0.279,12.65-0.264,18.641
	c-0.096,1.053-3.629,2.553-5.583,2.566c-25.351,0.174-50.705,0.116-76.058,0.116c-2.378,0-4.756,0-7.729,0
	C1495.351,306.692,1495.351,334.829,1495.351,363.415z"/>
<path fill-rule="evenodd" clip-rule="evenodd" fill="#ED1C24" d="M1354.81,337.773c2.979,3.94,6.03,7.977,9.523,12.599
	c-13.534,10.547-28.487,15.716-45.151,14.492c-37.151-2.729-64.924-35.521-62.481-73.129c2.166-33.349,22.141-58.676,52.298-65.203
	c19.981-4.324,38.908-1.595,54.271,13.138c19.833,19.021,15.429,48.398-9.513,59.897c-9.173,4.228-19.886,6.051-30.07,6.914
	c-13.555,1.147-27.28,0.282-40.986,0.282C1285.743,337.772,1318.252,351.628,1354.81,337.773z M1282.32,284.647
	c18.258-0.974,36.235-1.775,54.181-3.054c2.8-0.2,5.691-2.235,8.115-4.005c7.657-5.596,9.14-15.442,2.728-22.433
	c-3.285-3.579-7.878-6.81-12.479-8.184C1312.172,240.196,1285.097,259.02,1282.32,284.647z"/>
<path fill-rule="evenodd" clip-rule="evenodd" fill="#ED1C24" d="M1601.33,295.078c0.523-12.453,3.156-23.745,7.684-34.401
	c10.498-24.703,36.578-38.155,64.666-35.757c45.534,3.888,64.542,41.701,60.281,79.486c-0.987,8.755-3.396,17.748-7.096,25.729
	c-11.931,25.739-38.566,38.289-70.226,34.158c-27.294-3.562-48.067-23.38-53.174-51.022
	C1602.359,307.279,1602.022,301.147,1601.33,295.078C1600.868,294.908,1601.791,295.248,1601.33,295.078z M1710.652,297.114
	c-0.111-12.783-2.422-22.815-8-31.944c-15.446-25.273-52.517-26.354-68.186-1.351c-12.65,20.186-12.686,41.591-0.312,62.015
	c11.778,19.44,39.07,24.336,57.491,10.944C1705.775,326.505,1710.082,311.515,1710.652,297.114z"/>
<path fill-rule="evenodd" clip-rule="evenodd" fill="#ED1C24" d="M754.331,262.619c0.021-20.433,8.5-31.539,28.664-34.883
	c24.716-4.1,48.643-1.656,69.531,13.927c11.422,8.522,18.172,20.353,18.499,34.532c0.649,28.195,0.294,56.412,0.325,84.62
	c0,0.773-0.342,1.548-0.606,2.67c-7.541,0-15,0-23.135,0c0-2.474,0-4.661,0-6.85c-0.002-20.85,0.101-41.701-0.079-62.55
	c-0.048-5.692-0.434-11.479-1.546-17.049c-3.544-17.752-15.574-27.421-35.939-29.084c-5.688-0.465-11.448-0.436-17.152-0.161
	c-8.457,0.407-12.676,4.272-13.923,12.623c-0.631,4.225-0.893,8.539-0.903,12.813c-0.078,27.801-0.041,55.602-0.041,83.403
	c0,2.183,0,4.368,0,6.836c-8.218,0-15.671,0-23.705,0"/>
<path fill-rule="evenodd" clip-rule="evenodd" fill="#ED1C24" d="M891.828,354.6c0-1.352-0.059-1.577,0.008-1.757
	c5.896-15.978,5.769-15.254,22.273-12.333c12.122,2.147,24.641,2.833,36.974,2.754c9.2-0.061,14.354-5.011,15.823-11.844
	c1.483-6.899-1.295-13.211-9.321-17.553c-8.4-4.542-17.438-7.896-26.093-11.987c-6.805-3.216-13.935-6.063-20.084-10.289
	c-22.094-15.186-20.297-46.971,3.25-59.972c15.094-8.333,31.376-8.205,47.772-5.367c6.583,1.139,13.023,3.106,20.159,4.851
	c-1.443,5.946-2.711,11.167-3.634,14.967c-13.2-0.312-25.549-0.824-37.893-0.749c-3.313,0.021-6.852,1.367-9.882,2.904
	c-10.969,5.568-12.566,19.767-2.311,26.501c7.737,5.082,16.824,8.112,25.325,12.026c7.947,3.658,16.259,6.683,23.81,11.026
	c25.774,14.83,18.569,51.242-2.977,60.624c-7.53,3.279-15.919,5.488-24.091,6.217C930.48,366.447,910.825,362.224,891.828,354.6z"/>
<path fill-rule="evenodd" clip-rule="evenodd" fill="#ED1C24" d="M2161.288,246.037c-13.489-0.302-25.839-0.907-38.172-0.661
	c-3.851,0.076-8.034,1.828-11.411,3.887c-9.448,5.759-10.521,18.2-1.656,24.729c5.973,4.398,13.168,7.237,20.021,10.317
	c8.173,3.673,16.785,6.412,24.816,10.349c15.899,7.795,22.715,19.182,21.47,34.431c-1.341,16.406-10.772,28.195-27.624,32.87
	c-25.806,7.157-50.499,1.654-75.689-7.565c2.573-5.49,4.569-10.567,7.373-15.152c0.702-1.147,4.153-1.367,6.072-0.902
	c15.499,3.756,30.948,7.626,47.119,5.143c10.783-1.656,16.498-7.714,15.663-16.733c-0.565-6.113-4.41-10.191-9.392-12.8
	c-7.573-3.963-15.526-7.196-23.282-10.814c-7.011-3.269-14.226-6.201-20.9-10.06c-12.437-7.186-18.391-18.276-17.367-32.706
	c1.021-14.384,8.574-24.448,21.536-30.329c16.428-7.454,33.553-6.719,50.479-2.57c17.783,4.358,14.762,0.971,10.584,18.916
	C2160.851,246.718,2160.404,246.968,2161.288,246.037z"/>
<path fill-rule="evenodd" clip-rule="evenodd" fill="#ED1C24" d="M1211.045,170.641c7.656,0,14.951,0,22.718,0
	c0,64.147,0,128.183,0,192.726c-7.337,0-14.761,0-22.718,0C1211.045,299.314,1211.045,235.303,1211.045,170.641z"/>
<path fill-rule="evenodd" clip-rule="evenodd" fill="#ED1C24" d="M1780.14,363.559c-8.22,0-15.502,0-23.357,0
	c-0.138-2.229-0.364-4.186-0.365-6.144c-0.021-25.747-0.029-51.491,0.016-77.236c0.006-3.467,0.07-6.967,0.52-10.396
	c4.158-31.795,26.846-48.604,58.999-43.493c6.619,1.052,13.06,3.228,19.596,4.828c3.151,0.77,4.468,2.373,3.387,5.73
	c-1.11,3.456-1.905,7.015-2.823,10.473c-7.699-0.719-14.943-1.929-22.195-1.977c-21.722-0.139-33.48,11.392-33.693,33.135
	c-0.256,25.947-0.074,51.898-0.082,77.849C1780.139,358.556,1780.14,360.784,1780.14,363.559z"/>
<path fill-rule="evenodd" clip-rule="evenodd" fill="#ED1C24" d="M1040.405,363.418c-8.048,0-15.495,0-23.368,0
	c0-45.659,0-91.113,0-137.398c6.787,0,13.483-0.26,20.121,0.238c1.201,0.09,3.081,3.271,3.104,5.045
	c0.232,17.772,0.143,35.549,0.143,53.324c0.001,23.905,0,47.81,0,71.714C1040.405,358.55,1040.405,360.759,1040.405,363.418z"/>
<path fill-rule="evenodd" clip-rule="evenodd" fill="#ED1C24" d="M1019.384,195.913c0.062-6.533,5.295-11.671,11.716-11.501
	c6.398,0.17,11.665,5.608,11.516,11.891c-0.154,6.392-5.461,11.485-11.909,11.426
	C1024.236,207.67,1019.324,202.543,1019.384,195.913z"/>
</svg>
