<?xml version="1.0" encoding="utf-8"?>
<!-- Generator: Adobe Illustrator 27.0.1, SVG Export Plug-In . SVG Version: 6.00 Build 0)  -->
<svg version="1.1" id="Layer_1" xmlns="http://www.w3.org/2000/svg" xmlns:xlink="http://www.w3.org/1999/xlink" x="0px" y="0px"
	 viewBox="0 0 512 505.2" style="enable-background:new 0 0 512 505.2;" xml:space="preserve">
<style type="text/css">
	.st0{fill:#ED1C24;}
</style>
<g>
	<path class="st0" d="M485.5,67.2H317.8V26.5c0-7.8-3.5-15.3-9.5-20.3c-4.5-3.8-10.1-5.9-15.8-6.2c-1.9-0.1-3.9,0-5.8,0.4L29.2,45.9
		C12.3,48.8,0,63.5,0,80.6v344c0,17.2,12.3,31.8,29.2,34.8l257.5,45.4c1.5,0.3,3.1,0.4,4.6,0.4c6.2,0,12.2-2.1,17-6.2
		c6-5,9.5-12.4,9.5-20.3V438h167.7c14.6,0,26.5-11.9,26.5-26.5V93.7C512,79.1,500.1,67.2,485.5,67.2z M300.1,478.7
		c0,3.6-2,5.8-3.2,6.8c-1.2,1-3.7,2.5-7.2,1.9L32.2,442c-8.4-1.5-14.6-8.8-14.6-17.4v-344c0-8.6,6.1-15.9,14.6-17.4l257.5-45.4
		c0.9-0.1,1.7-0.2,2.5-0.1c2.3,0.2,3.9,1.3,4.8,2c1.2,1,3.2,3.2,3.2,6.8V478.7z M494.3,411.5c0,4.9-4,8.8-8.8,8.8h-97.1h-70.6V84.9
		h70.6h97.1c4.9,0,8.8,4,8.8,8.8V411.5z"/>
	<path class="st0" d="M353.1,129c-4.9,0-8.8,3.9-8.8,8.8V235c0,4.9,4,8.8,8.8,8.8h97.1c4.9,0,8.8-3.9,8.8-8.8v-35.3
		c0-4.9-4-8.8-8.8-8.8c-4.9,0-8.8,3.9-8.8,8.8v26.5h-79.4v-79.4h44.1c4.9,0,8.8-3.9,8.8-8.8c0-4.9-4-8.8-8.8-8.8H353.1z"/>
	<path class="st0" d="M459,129c-2.3,0-4.5,0.9-6.2,2.6l-46.7,46.7l-11.4-11.4c-3.5-3.5-9-3.5-12.5,0c-3.5,3.5-3.5,9,0,12.5
		l17.7,17.7c1.7,1.7,4,2.6,6.2,2.6c2.3,0,4.5-0.9,6.2-2.6l53-53c3.5-3.5,3.5-9,0-12.5C463.5,129.9,461.3,129,459,129z"/>
	<path class="st0" d="M450.2,261.4h-97.1c-4.9,0-8.8,3.9-8.8,8.8v35.3c0,4.9,4,8.8,8.8,8.8h97.1c4.9,0,8.8-3.9,8.8-8.8v-35.3
		C459,265.4,455.1,261.4,450.2,261.4z M441.4,296.8h-79.4v-17.7h79.4V296.8z"/>
	<path class="st0" d="M450.2,332.1h-97.1c-4.9,0-8.8,3.9-8.8,8.8v35.3c0,4.9,4,8.8,8.8,8.8h97.1c4.9,0,8.8-3.9,8.8-8.8v-35.3
		C459,336,455.1,332.1,450.2,332.1z M441.4,367.4h-79.4v-17.7h79.4V367.4z"/>
	<path class="st0" d="M162.8,165.3l60.4,149.1L132,242.5L162.8,165.3z M270.1,348.7l-92.9-223.6c-2.7-6.4-8-9.9-14.4-9.9
		c-6.4,0-12.1,3.4-14.8,9.9l-102,245.2H81l40.4-101.1l120.4,97.3c4.8,3.9,8.3,5.7,12.9,5.7c9.1,0,17.1-6.8,17.1-16.7
		C271.7,354,271.1,351.5,270.1,348.7L270.1,348.7z"/>
</g>
</svg>
