<?xml version="1.0" encoding="utf-8"?>
<!-- Generator: Adobe Illustrator 16.0.0, SVG Export Plug-In . SVG Version: 6.00 Build 0)  -->
<!DOCTYPE svg PUBLIC "-//W3C//DTD SVG 1.1//EN" "http://www.w3.org/Graphics/SVG/1.1/DTD/svg11.dtd">
<svg version="1.1" id="Layer_1" xmlns="http://www.w3.org/2000/svg" xmlns:xlink="http://www.w3.org/1999/xlink" x="0px" y="0px"
	 width="464px" height="457.852px" viewBox="24 27.071 464 457.852" enable-background="new 24 27.071 464 457.852"
	 xml:space="preserve">
<g>
	<path fill="#ED1C24" d="M464,88H312V51.078c0-7.112-3.13-13.823-8.578-18.391c-4.086-3.433-9.121-5.367-14.344-5.594
		c-1.74-0.076-3.496,0.029-5.25,0.344L50.437,68.625C35.118,71.329,24,84.58,24,100.141v311.734c0,15.552,11.118,28.804,26.438,31.5
		l233.391,41.188c1.393,0.247,2.796,0.359,4.188,0.359c5.601,0,11.047-1.946,15.406-5.609c5.448-4.568,8.578-11.279,8.578-18.391
		V424h152c13.232,0,24-10.769,24-24V112C488,98.768,477.232,88,464,88z M296,460.922c0,3.239-1.795,5.244-2.859,6.141
		c-1.063,0.896-3.323,2.302-6.531,1.75L53.219,427.625C45.563,426.273,40,419.644,40,411.86V100.141
		c0-7.784,5.563-14.414,13.219-15.766l233.375-41.188c0.803-0.134,1.555-0.147,2.234-0.078c2.04,0.207,3.515,1.165,4.313,1.844
		c1.072,0.88,2.859,2.885,2.859,6.125V460.922z M472,400c0,4.416-3.592,8-8,8h-88h-64V104h64h88c4.408,0,8,3.584,8,8V400z"/>
	<path fill="#ED1C24" d="M344,144c-4.415,0-8,3.576-8,8v88c0,4.424,3.585,8,8,8h88c4.416,0,8-3.576,8-8v-32c0-4.424-3.584-8-8-8
		c-4.415,0-8,3.576-8,8v24h-72v-72h40c4.416,0,8-3.576,8-8s-3.584-8-8-8H344z"/>
	<path fill="#ED1C24" d="M440,144c-2.046,0-4.092,0.779-5.656,2.344L392,188.688l-10.344-10.344c-3.128-3.128-8.184-3.128-11.313,0
		c-3.128,3.128-3.128,8.185,0,11.313l16,16c1.561,1.56,3.608,2.344,5.656,2.344c2.049,0,4.097-0.784,5.656-2.344l48-48
		c3.129-3.128,3.129-8.185,0-11.313C444.093,144.78,442.047,144,440,144z"/>
	<path fill="#ED1C24" d="M432,264h-88c-4.415,0-8,3.576-8,8v32c0,4.424,3.585,8,8,8h88c4.416,0,8-3.576,8-8v-32
		C440,267.576,436.416,264,432,264z M424,296h-72v-16h72V296z"/>
	<path fill="#ED1C24" d="M432,328h-88c-4.415,0-8,3.576-8,8v32c0,4.424,3.585,8,8,8h88c4.416,0,8-3.576,8-8v-32
		C440,331.576,436.416,328,432,328z M424,360h-72v-16h72V360z"/>
	<path fill="#ED1C24" d="M171.567,176.899l54.731,135.082l-82.671-65.119L171.567,176.899z M268.795,343.099l-84.187-202.603
		c-2.402-5.843-7.21-8.935-13.042-8.935c-5.843,0-10.998,3.091-13.402,8.935L65.763,362.727h31.609L133.95,271.1l109.155,88.184
		c4.391,3.552,7.558,5.156,11.677,5.156c8.247,0,15.454-6.181,15.454-15.104C270.236,347.881,269.722,345.575,268.795,343.099
		L268.795,343.099z"/>
</g>
</svg>
